# Blender v2.82 (sub 7) OBJ File: ''
# www.blender.org
mtllib tree_trunk.mtl
o Tree1.001_Cube.002
v -0.668539 0.000074 -0.284847
v -0.690550 6.388783 -1.442485
v 1.819255 4.028984 -0.107486
v 1.809733 4.195028 -0.072239
v 0.867542 4.517649 1.955075
v 1.050866 4.517649 1.958940
v 1.817616 5.790189 1.053021
v 1.773352 5.806265 0.853303
v 1.220594 7.170178 0.162784
v 1.163428 7.345659 0.252655
v 1.169389 7.345659 0.069388
v -0.889231 7.567997 -0.081545
v -0.799426 7.718293 -0.060440
v 0.206770 9.509089 0.808607
v 0.129807 9.554813 0.648581
v 0.295053 9.554813 0.569107
v -1.669885 3.707297 0.421765
v -0.648243 3.032622 0.118065
v -0.891517 3.032622 -0.306335
v -0.763826 3.499136 -0.379530
v -0.520552 3.499136 0.044870
v -1.709447 3.538857 0.444442
v 0.256575 7.313873 0.274681
v -0.190027 7.559690 0.149801
v 0.131441 7.350989 -0.059479
v 0.372017 9.509089 0.729133
v -0.052250 7.497539 0.438047
v 0.359701 6.987559 -0.018477
v 0.216863 6.925263 0.258299
v -0.203506 6.441640 0.092102
v -0.194406 6.549916 -0.276955
v 0.165395 6.614194 -0.274114
v -0.496729 5.924371 -0.686352
v -0.122304 6.269763 -0.792390
v -0.424335 6.269763 -0.582284
v -0.839021 6.390956 -1.346416
v 1.188821 3.787619 0.294001
v 1.384214 4.200339 0.646845
v 1.428601 3.787619 0.529717
v 1.149664 3.881518 1.214731
v 0.755736 3.624536 0.872147
v 0.836577 4.192779 0.950475
v 1.251347 4.178697 1.025793
v 0.956927 4.368993 2.065017
v 0.973119 4.175309 0.484714
v 1.934623 5.729936 0.895591
v 0.492360 3.059202 -0.175457
v 0.075597 3.059202 0.235061
v 0.293628 3.675518 -0.462967
v 0.981417 3.477544 0.398992
v 0.472906 3.874909 0.565435
v 0.812971 3.865771 0.237158
v -0.053045 3.680963 0.032140
v -0.565307 3.796785 -0.322792
v -0.229255 3.796785 -0.838658
v 0.295864 5.404971 -0.435980
v 0.015241 5.404971 -0.005202
v -0.414803 5.434949 -0.285347
v -0.111245 5.796052 -0.761218
v 0.287677 0.000025 -0.666504
v 0.674589 0.000370 0.286407
v -0.291482 0.000128 0.670528
v -0.615629 2.371563 -0.545428
v 0.069149 2.371563 -0.819579
v 0.340159 2.482891 -0.142645
v -0.344619 2.482891 0.131506
v -0.411764 7.152704 0.183131
v -0.343852 7.152704 -0.105836
v -0.185703 7.401143 -0.068668
v -0.253615 7.401143 0.220299
vt 0.158342 0.852865
vt 0.192864 0.709447
vt 0.443245 0.836624
vt 0.190511 0.802323
vt 0.000077 0.841498
vt 0.223097 0.852450
vt 0.190534 0.879767
vt 0.325318 0.044756
vt 0.325260 0.044713
vt 0.325235 0.044638
vt 0.251020 0.245724
vt 0.072711 0.102073
vt 0.275628 0.092555
vt 0.179388 0.999923
vt 0.275539 0.036021
vt 0.443245 0.297757
vt 0.196907 0.512563
vt 0.323106 0.043142
vt 0.323677 0.042547
vt 0.323806 0.044400
vt 0.322960 0.042487
vt 0.323137 0.043043
vt 0.368297 0.081661
vt 0.352644 0.000077
vt 0.323868 0.041442
vt 0.322047 0.048156
vt 0.325360 0.042363
vt 0.324104 0.046591
vt 0.324471 0.043263
vt 0.323900 0.046826
vt 0.324175 0.040757
vt 0.324647 0.040933
vt 0.325061 0.044374
vt 0.325278 0.044668
vt 0.325203 0.045198
vt 0.227803 0.207593
vt 0.323350 0.044657
vt 0.323712 0.046089
vt 0.325252 0.044618
vt 0.325253 0.044617
vt 0.325260 0.044619
vt 0.325290 0.044432
vt 0.325252 0.044618
vt 0.325263 0.044608
vt 0.325259 0.044612
vt 0.325260 0.044613
vt 0.214068 0.200540
vt 0.323882 0.039730
vt 0.325152 0.034881
vt 0.324239 0.038090
vt 0.323878 0.037173
vt 0.325256 0.044618
vt 0.325255 0.044636
vt 0.201684 0.241586
vt 0.525856 0.045705
vt 0.561962 0.000077
vt 0.519872 0.045705
vt 0.486240 0.084235
vt 0.486240 0.007174
vt 0.561962 0.091333
vt 0.277929 0.630625
vt 0.323264 0.543384
vt 0.289395 0.618735
vt 0.267731 0.612817
vt 0.219769 0.217757
vt 0.220705 0.215450
vt 0.325258 0.044650
vt 0.325245 0.044648
vt 0.325264 0.044593
vt 0.325103 0.038446
vt 0.443399 0.062642
vn 0.9372 0.0296 -0.3477
vn -0.8982 0.0346 0.4382
vn -0.8974 0.0344 0.4400
vn -0.8968 0.0342 0.4411
vn 0.4242 -0.2049 0.8821
vn 0.5715 -0.5791 -0.5814
vn -0.8335 0.5353 0.1365
vn -0.3884 0.2816 -0.8774
vn 0.9772 0.1281 -0.1693
vn 0.3201 0.0590 0.9456
vn 0.3178 0.0551 0.9466
vn 0.3209 0.0605 0.9452
vn -0.6542 0.0590 -0.7540
vn -0.6562 0.0550 -0.7525
vn -0.6572 0.0531 -0.7518
vn -0.3674 -0.9059 0.2106
vn -0.5451 -0.1916 0.8162
vn 0.8314 0.0088 -0.5557
vn -0.2231 -0.1377 0.9650
vn 0.8207 -0.2015 0.5346
vn 0.5970 0.1144 -0.7940
vn -0.0879 0.2926 0.9522
vn 0.1081 0.9684 0.2247
vn -0.1570 -0.0626 0.9856
vn 0.3405 -0.4011 0.8504
vn -0.1635 0.1964 0.9668
vn -0.4970 0.6841 -0.5339
vn -0.9524 0.1144 0.2827
vn -0.6984 0.5525 -0.4550
vn 0.4327 0.9012 -0.0234
vn 0.6945 -0.1433 0.7051
vn 0.9107 -0.2588 -0.3220
vn -0.6716 0.0681 -0.7378
vn 0.3531 -0.8968 0.2667
vn -0.0171 0.5879 0.8088
vn -0.7861 -0.4231 0.4506
vn 0.7088 0.1682 -0.6850
vn -0.3657 0.1778 -0.9136
vn 0.0002 -1.0000 0.0001
vn -0.0000 -1.0000 0.0001
vn -0.0210 -0.3086 0.9510
vn 0.9435 0.0075 0.3312
vn -0.2679 0.7326 0.6257
vn -0.1497 0.8598 -0.4883
vn 0.2336 0.5307 -0.8147
vn 0.4277 -0.0817 0.9002
vn 0.0468 0.1173 -0.9920
vn 0.0438 0.1149 -0.9924
vn 0.0426 0.1140 -0.9926
vn 0.4576 0.8827 0.1075
vn -0.4000 0.1173 0.9090
vn -0.4029 0.1149 0.9080
vn -0.3991 0.1180 0.9093
vn 0.2268 -0.9687 -0.1010
vn 0.1831 -0.4002 0.8979
vn -0.0351 0.9994 -0.0011
vn 0.1230 -0.0347 -0.9918
vn -0.3587 -0.8398 -0.4076
vn 0.0803 0.9904 0.1128
vn 0.0830 0.9905 0.1093
vn 0.0842 0.9906 0.1077
vn -0.8757 0.0385 0.4813
vn -0.0469 0.9983 -0.0351
vn 0.8595 -0.0530 0.5083
vn 0.8604 -0.0565 0.5065
vn 0.8607 -0.0580 0.5057
vn -0.5530 0.0992 -0.8272
vn 0.1094 -0.8514 0.5129
vn -0.8963 -0.2922 0.3336
vn 0.0065 0.9514 -0.3079
vn 0.9518 -0.1590 0.2622
vn 0.8847 -0.3654 0.2893
vn -0.8366 0.4993 0.2256
vn 0.3651 0.0312 -0.9305
vn 0.2746 -0.8734 0.4023
vn -0.7087 0.0605 0.7029
vn -0.1607 0.9679 -0.1935
vn 0.8052 -0.0169 -0.5927
vn 0.8379 -0.0096 0.5458
vn -0.5435 0.0397 0.8385
vn -0.8694 0.0910 -0.4856
vn 0.5830 -0.0029 -0.8124
vn -0.3692 -0.0936 -0.9246
vn -0.3699 -0.0934 -0.9244
vn -0.3700 -0.0933 -0.9243
vn 0.9245 0.0606 -0.3763
vn 0.9237 0.0593 -0.3785
vn 0.9248 0.0610 -0.3755
vn 0.3620 0.2054 0.9093
vn 0.3632 0.2058 0.9087
vn 0.3637 0.2060 0.9085
vn -0.9288 0.0605 0.3656
vn -0.9297 0.0593 0.3635
vn -0.9301 0.0588 0.3627
vn 0.9049 0.0401 -0.4237
vn -0.4164 0.2778 -0.8657
vn 0.3547 -0.2134 0.9103
vn -0.8987 0.0348 0.4371
vn 0.3166 0.0531 0.9471
vn 0.1502 0.9849 -0.0861
vn -0.6534 0.0605 -0.7546
vn -0.5277 0.8288 -0.1858
vn -0.9499 0.0869 0.3001
vn 0.9549 0.2952 0.0311
vn 0.4185 -0.7914 0.4455
vn -0.9353 0.2774 -0.2198
vn -0.7891 -0.4717 0.3935
vn 0.8774 -0.0111 -0.4797
vn -0.5320 -0.1226 -0.8378
vn 0.0003 -1.0000 0.0002
vn -0.7310 0.0100 0.6823
vn -0.3447 -0.6288 -0.6970
vn 0.9204 -0.0705 0.3845
vn -0.7810 0.4355 0.4477
vn -0.3377 0.8063 -0.4855
vn 0.0661 -0.3594 -0.9309
vn 0.7686 -0.5819 0.2657
vn 0.5513 0.2567 -0.7939
vn -0.6037 -0.7845 -0.1419
vn 0.0477 0.1180 -0.9919
vn -0.4040 0.1140 0.9076
vn 0.0258 -0.0447 0.9987
vn -0.0090 0.9935 0.1137
vn 0.2683 -0.3904 -0.8807
vn -0.3100 -0.8319 -0.4602
vn 0.7503 -0.0260 -0.6606
vn 0.0793 0.9903 0.1140
vn 0.8593 -0.0520 0.5089
vn 0.2205 -0.9492 -0.2243
vn -0.5693 0.1393 -0.8102
vn -0.9896 0.1430 -0.0157
vn 0.0906 0.9421 -0.3228
vn 0.8818 -0.2942 0.3686
vn 0.7227 -0.2647 0.6385
vn -0.1770 0.0456 0.9832
vn -0.8409 0.4723 -0.2642
vn 0.2779 0.0559 -0.9590
vn 0.3642 -0.8548 0.3697
vn -0.7234 0.0743 0.6864
vn -0.1763 0.9751 -0.1342
vn 0.7442 0.0451 -0.6664
vn 0.8189 -0.0200 0.5736
vn -0.5642 0.0330 0.8250
vn -0.8358 0.0704 -0.5445
vn 0.6307 0.0113 -0.7759
vn -0.3691 -0.0937 -0.9247
vn 0.9234 0.0588 -0.3793
vn 0.3616 0.2052 0.9095
vn -0.9284 0.0610 0.3664
usemtl Tree1_2.002
s 1
f 16/1/1 23/2/1 25/3/1
f 15/4/2 27/5/3 14/6/4
f 14/6/5 23/2/5 26/7/5
f 50/8/6 37/9/6 39/10/6
f 35/11/7 30/12/7 31/13/7
f 15/4/8 25/3/8 24/14/8
f 56/15/9 32/16/9 29/17/9
f 17/18/10 18/19/11 21/20/12
f 17/18/13 19/21/14 22/22/15
f 22/22/16 19/21/16 18/19/16
f 58/23/17 57/24/17 30/12/17
f 64/25/18 49/26/18 47/27/18
f 30/12/19 57/24/19 29/17/19
f 57/24/20 56/15/20 29/17/20
f 64/25/21 55/28/21 49/26/21
f 21/20/22 48/29/22 53/30/22
f 16/1/23 14/6/23 26/7/23
f 18/19/24 66/31/24 48/29/24
f 66/31/25 65/32/25 48/29/25
f 21/20/26 18/19/26 48/29/26
f 51/33/27 45/34/27 52/35/27
f 33/36/28 30/12/28 35/11/28
f 20/37/29 54/38/29 55/28/29
f 7/39/30 46/40/30 8/41/30
f 48/29/31 65/32/31 47/27/31
f 65/32/32 64/25/32 47/27/32
f 19/21/33 20/37/33 55/28/33
f 41/42/34 39/10/34 40/43/34
f 5/44/35 44/45/35 6/46/35
f 19/21/36 66/31/36 18/19/36
f 59/47/37 32/16/37 56/15/37
f 19/21/38 64/25/38 63/48/38
f 60/49/39 62/50/39 1/51/40
f 27/5/41 30/12/41 29/17/41
f 43/52/42 39/10/42 38/53/42
f 54/38/43 21/20/43 53/30/43
f 34/54/44 31/13/44 32/16/44
f 37/9/45 52/35/45 45/34/45
f 23/2/46 27/5/46 29/17/46
f 13/55/47 68/56/48 12/57/49
f 13/55/50 70/58/50 69/59/50
f 13/55/51 67/60/52 70/58/53
f 9/61/54 29/17/54 28/62/54
f 10/63/55 29/17/55 9/61/55
f 11/64/56 23/2/56 10/63/56
f 11/64/57 28/62/57 25/3/57
f 36/65/58 59/47/58 33/36/58
f 36/65/59 34/54/60 2/66/61
f 36/65/62 33/36/62 35/11/62
f 4/67/63 45/34/63 38/53/63
f 4/67/64 39/10/65 3/68/66
f 4/67/67 37/9/67 45/34/67
f 44/45/68 41/42/68 40/43/68
f 5/44/69 41/42/69 44/45/69
f 6/46/70 42/69/70 5/44/70
f 6/46/71 40/43/71 43/52/71
f 46/40/72 43/52/72 38/53/72
f 8/41/73 42/69/73 7/39/73
f 8/41/74 38/53/74 45/34/74
f 41/42/75 47/27/75 50/8/75
f 51/33/76 48/29/76 41/42/76
f 52/35/77 53/30/77 51/33/77
f 52/35/78 47/27/78 49/26/78
f 57/24/79 49/26/79 56/15/79
f 58/23/80 53/30/80 57/24/80
f 59/47/81 54/38/81 58/23/81
f 59/47/82 49/26/82 55/28/82
f 64/25/83 1/51/84 63/48/85
f 64/25/86 61/70/87 60/49/88
f 66/31/89 61/70/90 65/32/91
f 63/48/92 62/50/93 66/31/94
f 16/1/95 26/7/95 23/2/95
f 16/1/96 25/3/96 15/4/96
f 14/6/97 27/5/97 23/2/97
f 15/4/2 24/14/98 27/5/3
f 17/18/10 22/22/99 18/19/11
f 17/18/100 21/20/100 20/37/100
f 17/18/13 20/37/101 19/21/14
f 16/1/23 15/4/23 14/6/23
f 51/33/102 42/69/102 45/34/102
f 33/36/103 58/23/103 30/12/103
f 11/64/104 10/63/104 9/61/104
f 41/42/105 50/8/105 39/10/105
f 69/59/106 70/58/106 24/71/106
f 19/21/107 63/48/107 66/31/107
f 59/47/108 34/54/108 32/16/108
f 19/21/109 55/28/109 64/25/109
f 60/49/39 61/70/110 62/50/39
f 41/42/111 42/69/111 51/33/111
f 59/47/112 58/23/112 33/36/112
f 43/52/113 40/43/113 39/10/113
f 54/38/114 20/37/114 21/20/114
f 34/54/115 35/11/115 31/13/115
f 37/9/116 50/8/116 52/35/116
f 29/17/117 32/16/117 28/62/117
f 25/3/118 28/62/118 32/16/118
f 12/57/119 68/56/119 67/60/119
f 13/55/47 69/59/120 68/56/48
f 13/55/51 12/57/121 67/60/52
f 10/63/122 23/2/122 29/17/122
f 11/64/123 25/3/123 23/2/123
f 11/64/124 9/61/124 28/62/124
f 36/65/125 2/66/125 59/47/125
f 2/66/126 34/54/126 59/47/126
f 36/65/59 35/11/127 34/54/60
f 4/67/64 38/53/128 39/10/65
f 3/68/129 39/10/129 37/9/129
f 4/67/130 3/68/130 37/9/130
f 5/44/131 42/69/131 41/42/131
f 6/46/132 43/52/132 42/69/132
f 6/46/133 44/45/133 40/43/133
f 46/40/134 7/39/134 43/52/134
f 7/39/135 42/69/135 43/52/135
f 8/41/136 45/34/136 42/69/136
f 8/41/137 46/40/137 38/53/137
f 41/42/138 48/29/138 47/27/138
f 51/33/139 53/30/139 48/29/139
f 52/35/140 49/26/140 53/30/140
f 52/35/141 50/8/141 47/27/141
f 57/24/142 53/30/142 49/26/142
f 58/23/143 54/38/143 53/30/143
f 59/47/144 55/28/144 54/38/144
f 59/47/145 56/15/145 49/26/145
f 64/25/83 60/49/146 1/51/84
f 64/25/86 65/32/147 61/70/87
f 66/31/89 62/50/148 61/70/90
f 63/48/92 1/51/149 62/50/93
